{"title":"Vanilla Sky - 720p HQ, mkv, xvid, ogg - Dutch Subtitles Included","uid":6405710,"size":1755256231,"categoryP":"video","categoryS":"hd___movies","magnet":"?xt=urn:btih:038909dcbef37f423856fe6e5fb6ea98611797be&amp;dn=Vanilla+Sky+-+720p+HQ%2C+mkv%2C+xvid%2C+ogg+-+Dutch+Subtitles+Included&amp;tr=udp%3A%2F%2Ftracker.openbittorrent.com%3A80&amp;tr=udp%3A%2F%2Fopen.demonii.com%3A1337&amp;tr=udp%3A%2F%2Ftracker.coppersurfer.tk%3A6969&amp;tr=udp%3A%2F%2Fexodus.desync.com%3A6969","seeders":1,"leechers":0,"uploader":"woftor","files":1,"time":1305803451,"description":"Vanilla Sky\n\nA successful publisher finds his life taking a turn for the surreal after a car accident with a jaded lover.\n\nDirector: Cameron Crowe\nWith: Tom Cruise, PenÃƒÂ©lope Cruz and Cameron Diaz\n\n\nAn High Quality .mkv file\n- Xvid 1.3.1 2011-03-24\n- OGG Vorbis aoTuV b6.03 2011-02-27\n- Dutch Subtitles Included (can be turned off ;) ).\n\n----\nAdditional File Info:\n\n\nGeneral\nFormat                           : Matroska (MKV)\nFile size                        : 1.63 GiB\nDuration                         : 2h 10mn\nOverall bit rate                 : 1 794 Kbps\n\nVideo\nID                               : 1\nFormat                           : MPEG-4 Visual\nFormat profile                   : Advanced Simple@L5\nFormat settings, BVOP            : Yes\nFormat settings, QPel            : No\nFormat settings, GMC             : No warppoints\nFormat settings, Matrix          : Default (H.263)\nCodec ID                         : XVID\nCodec ID/Hint                    : XviD\nDuration                         : 2h 10mn\nBit rate                         : 1 639 Kbps\nWidth                            : 720 pixels\nHeight                           : 400 pixels\nDisplay aspect ratio             : 16:9\nFrame rate                       : 25.000 fps\nColor space                      : YUV\nChroma subsampling               : 4:2:0\nBit depth                        : 8 bits\nScan type                        : Progressive\nCompression mode                 : Lossy\nBits/(Pixel*Frame)               : 0.228\nStream size                      : 1.49 GiB (91%)\nTitle                            : Video\nWriting library                  : XviD 63\n\nAudio\nID                               : 2\nFormat                           : Vorbis\nFormat settings, Floor           : 1\nCodec ID                         : A_VORBIS\nDuration                         : 2h 10mn\nBit rate mode                    : Constant\nBit rate                         : 120 Kbps\nChannel(s)                       : 2 channels\nSampling rate                    : 48.0 KHz\nCompression mode                 : Lossy\nStream size                      : 112 MiB (7%)\nTitle                            : Audio\nWriting library                  : aoTuV 20110227 (UTC 2011-02-27)\nLanguage                         : English\n\nText\nID                               : 3\nFormat                           : UTF-8\nCodec ID                         : S_TEXT/UTF8\nCodec ID/Info                    : UTF-8 Plain Text\nTitle                            : Subtitles\nLanguage                         : Dutch\n","torrent":{"xt":"urn:btih:038909dcbef37f423856fe6e5fb6ea98611797be","amp;dn":"Vanilla+Sky+-+720p+HQ%2C+mkv%2C+xvid%2C+ogg+-+Dutch+Subtitles+Included","amp;tr":["udp%3A%2F%2Ftracker.openbittorrent.com%3A80","udp%3A%2F%2Fopen.demonii.com%3A1337","udp%3A%2F%2Ftracker.coppersurfer.tk%3A6969","udp%3A%2F%2Fexodus.desync.com%3A6969"],"infoHash":"038909dcbef37f423856fe6e5fb6ea98611797be","infoHashBuffer":{"type":"Buffer","data":[3,137,9,220,190,243,127,66,56,86,254,110,95,182,234,152,97,23,151,190]},"announce":[],"urlList":[]}}